<svg width="300" height="246" viewBox="0 0 300 246" fill="none" xmlns="http://www.w3.org/2000/svg">
  <path d="M210 76.5455H223.333V89.8182H210V76.5455Z" fill="#0040FF"/>
  <path d="M196.667 89.8182H210V103.091H196.667V89.8182Z" fill="#0040FF"/>
  <path d="M183.333 103.091H196.667V116.364H183.333V103.091Z" fill="#0040FF"/>
  <path d="M170 116.364H183.333V129.636H170V116.364Z" fill="#0040FF"/>
  <path d="M156.667 129.636H170V142.909H156.667V129.636Z" fill="#0040FF"/>
  <path d="M143.333 142.909H156.667V156.182H143.333V142.909Z" fill="#0040FF"/>
  <path d="M130 156.182H143.333V169.455H130V156.182Z" fill="#0040FF"/>
  <path d="M130 169.455H116.667H103.333V182.727V196H116.667V182.727H130V169.455Z" fill="#0040FF"/>
  <path d="M103.333 169.455V142.909H90V116.364H76.6667V142.909V169.455V182.727H90V169.455H103.333Z" fill="#0040FF"/>
  <path d="M90 103.091H116.667V116.364H90V103.091Z" fill="#0040FF"/>
  <path d="M116.667 89.8182H143.333V103.091H116.667V89.8182Z" fill="#0040FF"/>
  <path d="M63.3333 89.8182H76.6667V116.364H63.3333V89.8182Z" fill="#0040FF"/>
  <path d="M250 50H50V63.2727V89.8182H63.3333V63.2727H223.333V76.5455H236.667V63.2727H250V50Z" fill="#0040FF"/>
</svg>
