<svg class="w-[96px] h-[96px]" viewBox="0 0 96 96" fill="none" xmlns="http://www.w3.org/2000/svg">
  <path fill-rule="evenodd" clip-rule="evenodd" d="M48.0397 0C21.475 0 0 21.5416 0 48.1914C0 69.4941 13.7598 87.5264 32.8482 93.9085C35.2348 94.3883 36.1089 92.8716 36.1089 91.5958C36.1089 90.4785 36.0303 86.649 36.0303 82.659C22.6668 85.5318 19.884 76.9142 19.884 76.9142C17.7364 71.3291 14.5543 69.8936 14.5543 69.8936C10.1804 66.9414 14.8729 66.9414 14.8729 66.9414C19.7247 67.2606 22.2705 71.8882 22.2705 71.8882C26.5647 79.228 33.4844 77.1541 36.2682 75.8773C36.6655 72.7655 37.9389 70.6113 39.291 69.4148C28.6327 68.2976 17.4187 64.1489 17.4187 45.6378C17.4187 40.3719 19.3264 36.0635 22.3492 32.7128C21.8723 31.5163 20.2016 26.5686 22.8271 19.9465C22.8271 19.9465 26.8833 18.6697 36.0293 24.8933C39.945 23.8384 43.9832 23.3017 48.0397 23.2972C52.096 23.2972 56.2309 23.8563 60.0492 24.8933C69.1961 18.6697 73.2524 19.9465 73.2524 19.9465C75.8779 26.5686 74.2062 31.5163 73.7293 32.7128C76.8317 36.0635 78.6607 40.3719 78.6607 45.6378C78.6607 64.1489 67.4468 68.2173 56.7088 69.4148C58.4591 70.9305 59.9695 73.8024 59.9695 78.3506C59.9695 84.8131 59.8908 89.9997 59.8908 91.5948C59.8908 92.8716 60.766 94.3883 63.1516 93.9095C82.24 87.5254 95.9998 69.4941 95.9998 48.1914C96.0785 21.5416 74.5248 0 48.0397 0Z" fill="current"/>
</svg>
