<svg class="w-[192px] h-[192px]" viewBox="0 0 192 192" fill="none" xmlns="http://www.w3.org/2000/svg">
  <g clip-path="url(#clip0_29_87)">
    <path d="M192 0H0V192H192V0Z" fill="#1A1200"/>
    <path d="M82.2861 48H89.1433V54.8571H82.2861V48Z" fill="#FFB700"/>
    <path d="M61.7139 48H68.571V54.8571H61.7139V48Z" fill="#FFB700"/>
    <path d="M89.1426 61.7143H95.9997V68.5714H89.1426V61.7143Z" fill="#FFB700"/>
    <path d="M96 68.5714H102.857V75.4286H96V68.5714Z" fill="#FFB700"/>
    <path d="M130.286 89.1429H137.143V96H130.286V89.1429Z" fill="#FFB700"/>
    <path d="M137.143 109.714H144V116.571H137.143V109.714Z" fill="#FFB700"/>
    <path d="M116.571 116.571H123.428V123.429H116.571V116.571Z" fill="#FFB700"/>
    <path d="M123.429 137.143H130.286V144H123.429V137.143Z" fill="#FFB700"/>
    <path d="M116.572 75.4286H123.429V82.2857V89.1429V96H130.286V102.857H123.429H116.572V109.714V116.571H109.715V109.714V102.857V96H116.572V89.1429H109.715V96H102.857V89.1429V82.2857V75.4286H109.715V82.2857H116.572V75.4286Z" fill="#FFB700"/>
    <path d="M130.286 116.571H137.143V123.429V130.286V137.143H130.286V130.286H123.429V123.429H130.286V116.571Z" fill="#FFB700"/>
    <path d="M144 75.4286H150.857V82.2857V89.1429V96V102.857V109.714H144V102.857V96V89.1429H137.143V82.2857H144V75.4286Z" fill="#FFB700"/>
    <path d="M95.9997 41.1429H102.857V48V54.8571V61.7143H95.9997V54.8571V48H89.1426V41.1429H95.9997Z" fill="#FFB700"/>
    <path d="M75.4284 54.8571H82.2856V61.7143H75.4284H68.5713V54.8571H75.4284Z" fill="#FFB700"/>
    <path d="M54.8571 41.1429H61.7143V48H54.8571V54.8571H48V48V41.1429H54.8571Z" fill="#FFB700"/>
    <path d="M41.1426 54.8571H47.9997V61.7143V68.5714V75.4286V82.2857V89.1429V96V102.857V109.714V116.571V123.429V130.286V137.143H54.8569V144H47.9997V150.857H41.1426V144V137.143V130.286V123.429V116.571V109.714V102.857V96V89.1429V82.2857V75.4286V68.5714V61.7143V54.8571Z" fill="#FFB700"/>
    <path d="M116.572 144H123.429V150.857H116.572H109.715H102.858H96.0004H89.1433H82.2861V144H89.1433H96.0004H102.858H109.715H116.572Z" fill="#FFB700"/>
    <path d="M75.4284 137.143H82.2856V144H75.4284H68.5713V137.143H75.4284Z" fill="#FFB700"/>
    <path d="M61.7146 130.286H68.5717V137.143H61.7146H54.8574V130.286H61.7146Z" fill="#FFB700"/>
  </g>
  <defs>
    <clipPath id="clip0_29_87">
      <rect width="192" height="192" fill="white"/>
    </clipPath>
  </defs>
</svg>
